# Blender v2.82 (sub 7) OBJ File: ''
# www.blender.org
o Cube.001
v -6.951038 -6.951038 0.246236
v 6.951038 -6.951038 0.246236
v 6.951038 6.951038 0.246236
v 6.951038 6.951038 -0.246236
v -6.951038 6.951038 -0.246236
v -6.951038 6.951038 0.246236
v -6.951038 -6.951038 -0.246236
v 6.951038 -6.951038 -0.246236
v 0.000000 6.951038 -0.246236
v -6.951038 0.000000 -0.246236
v 0.000000 -6.951038 -0.246236
v 6.951038 0.000000 -0.246236
v -3.475519 6.951038 -0.246236
v -6.951038 -3.475519 -0.246236
v 3.475519 -3.475519 -0.246236
v 3.475519 -6.951038 -0.246236
v 6.951038 -3.475519 -0.246236
v 3.475519 6.951038 -0.246236
v -6.951038 3.475519 -0.246236
v -3.475519 3.475519 -0.246236
v -3.475519 -6.951038 -0.246236
v 6.951038 3.475519 -0.246236
v 3.475519 3.475519 -0.246236
v 3.475519 0.000000 -0.246236
v 0.000000 3.475519 -0.246236
v -3.475519 0.000000 -0.246236
v 0.000000 -3.475519 -0.246236
v -3.475519 -3.475519 -0.246236
v -3.475519 3.475519 0.247883
v 3.475519 0.000000 0.247883
v 0.000000 3.475519 0.247883
v 3.475519 -3.475519 0.247883
v -3.475519 0.000000 0.247883
v 0.000000 -3.475519 0.247883
v -3.475519 -3.475519 0.247883
v 3.475519 3.475519 0.247883
vt 0.625000 0.750000
vt 0.375000 0.812500
vt 0.375000 0.875000
vt 0.625000 0.000000
vt 0.375000 0.062500
vt 0.375000 0.125000
vt 1.010540 -0.002223
vt 0.755836 -0.002223
vt 0.755836 0.252481
vt 0.625000 0.500000
vt 0.375000 0.562500
vt 0.375000 0.625000
vt 0.625000 0.250000
vt 0.375000 0.312500
vt 0.375000 0.375000
vt 0.375000 1.000000
vt 0.625000 1.000000
vt 0.375000 0.250000
vt 1.010540 0.252481
vt 0.375000 0.750000
vt 0.375000 0.500000
vt 1.010540 0.507185
vt 0.755836 0.761889
vt 1.010540 0.761889
vt 0.755836 0.507185
vt 0.501132 0.761889
vt 0.246428 0.761889
vt 0.246428 0.761889
vt 0.501132 0.252481
vt 0.755836 0.252481
vt 0.501132 0.761889
vt 0.501132 -0.002223
vt 0.246428 -0.002223
vt 0.246428 0.252481
vt -0.008276 0.252481
vt -0.008276 0.507185
vt -0.008276 -0.002223
vt 0.246428 0.507185
vt 0.246428 0.252481
vt -0.008276 0.761889
vt -0.008276 1.016593
vt 0.246428 1.016593
vt 0.501132 1.016593
vt 0.501132 0.252481
vt 0.246428 0.507185
vt 0.755836 1.016593
vt 1.010540 1.016593
vt 0.755836 0.507185
vt 0.755836 0.761889
vt 0.375000 0.937500
vt 0.375000 0.000000
vt 0.375000 0.187500
vt 0.375000 0.687500
vt 0.375000 0.437500
vn 0.0000 1.0000 0.0000
vn -1.0000 0.0000 0.0000
vn 0.0000 0.0000 -1.0000
vn 1.0000 0.0000 0.0000
vn 0.0000 -1.0000 0.0000
s off
f 3/1/1 18/2/1 9/3/1
f 6/4/2 19/5/2 10/6/2
f 8/7/3 16/8/3 15/9/3
f 2/10/4 17/11/4 12/12/4
f 1/13/5 21/14/5 11/15/5
f 3/1/1 5/16/1 6/17/1
f 6/4/2 7/18/2 1/13/2
f 8/7/3 15/9/3 17/19/3
f 2/10/4 4/20/4 3/1/4
f 1/13/5 8/21/5 2/10/5
f 12/22/3 23/23/3 22/24/3
f 12/22/3 24/25/3 23/23/3
f 25/26/5 29/27/5 20/28/5
f 27/29/1 32/30/1 15/9/1
f 23/23/5 31/31/5 25/26/5
f 11/32/3 21/33/3 28/34/3
f 28/34/3 14/35/3 10/36/3
f 28/34/3 21/33/3 14/35/3
f 21/33/3 7/37/3 14/35/3
f 26/38/3 28/34/3 10/36/3
f 26/38/4 35/39/4 28/34/4
f 27/29/3 11/32/3 28/34/3
f 20/28/3 19/40/3 5/41/3
f 20/28/3 26/38/3 19/40/3
f 26/38/3 10/36/3 19/40/3
f 25/26/3 13/42/3 9/43/3
f 25/26/3 20/28/3 13/42/3
f 20/28/3 5/41/3 13/42/3
f 23/23/3 25/26/3 9/43/3
f 28/34/1 34/44/1 27/29/1
f 20/28/4 33/45/4 26/38/4
f 22/24/3 18/46/3 4/47/3
f 22/24/3 23/23/3 18/46/3
f 23/23/3 9/43/3 18/46/3
f 17/19/3 24/25/3 12/22/3
f 17/19/3 15/9/3 24/25/3
f 15/9/2 30/48/2 24/25/2
f 24/25/2 36/49/2 23/23/2
f 15/9/3 16/8/3 27/29/3
f 16/8/3 11/32/3 27/29/3
f 3/1/1 4/20/1 18/2/1
f 9/3/1 13/50/1 3/1/1
f 13/50/1 5/16/1 3/1/1
f 6/4/2 5/51/2 19/5/2
f 10/6/2 14/52/2 6/4/2
f 14/52/2 7/18/2 6/4/2
f 2/10/4 8/21/4 17/11/4
f 12/12/4 22/53/4 2/10/4
f 22/53/4 4/20/4 2/10/4
f 1/13/5 7/18/5 21/14/5
f 11/15/5 16/54/5 1/13/5
f 16/54/5 8/21/5 1/13/5
f 25/26/5 31/31/5 29/27/5
f 27/29/1 34/44/1 32/30/1
f 23/23/5 36/49/5 31/31/5
f 26/38/4 33/45/4 35/39/4
f 28/34/1 35/39/1 34/44/1
f 20/28/4 29/27/4 33/45/4
f 15/9/2 32/30/2 30/48/2
f 24/25/2 30/48/2 36/49/2
